# xmcd CD database file
#
# Track frame offsets:
#	150
#	52862
#	65512
#	81037
#	94087
#	121837
#	135712
#	152687
#	157537
#	173175
#	208287
#	219875
#
# Disc length: 3323 seconds
#
# Revision: 3
# Processed by: cddbd v1.5PL3 Copyright (c) Steve Scherf et al.
# Submitted via: CDex 1.50
#
DISCID=940cf90c
DTITLE=James Brown - Messing With The Blues
DYEAR=1990
DGENRE=Blues
TTITLE0=Don't Deceive Me (Please Don't Go)
TTITLE1=The Things That I Used To Do
TTITLE2=Need Your Love So Bad
TTITLE3=Like A Baby
TTITLE4=Honky Tonk
TTITLE5=Suffering With The Blues
TTITLE6=Further On Up The Road
TTITLE7=Radio Spot
TTITLE8=Talk To Me, Talk To Me
TTITLE9=Kansas City
TTITLE10=Wonder When You're Coming Home
TTITLE11=Like It Is, Like Was (The Blues)
EXTD=YEAR: 1990
EXTT0=
EXTT1=
EXTT2=
EXTT3=
EXTT4=
EXTT5=
EXTT6=
EXTT7=
EXTT8=
EXTT9=
EXTT10=
EXTT11=
PLAYORDER=
